<svg width="61" height="61" viewBox="0 0 61 61" fill="none" xmlns="http://www.w3.org/2000/svg">
<mask id="path-1-inside-1_7_3" fill="white">
<path d="M47.1194 54.2349C47.6025 54.9248 47.4366 55.8793 46.7234 56.3273C41.7191 59.4709 35.8984 61.0989 29.9677 60.9954C24.037 60.8918 18.2766 59.0617 13.3851 55.7454C12.688 55.2728 12.5555 54.3131 13.0624 53.6405V53.6405C13.5693 52.9678 14.5233 52.8373 15.223 53.3061C19.5981 56.2369 24.7343 57.8535 30.0209 57.9458C35.3076 58.0381 40.4971 56.6017 44.9718 53.8253C45.6874 53.3813 46.6363 53.545 47.1194 54.2349V54.2349Z"/>
</mask>
<path d="M47.1194 54.2349C47.6025 54.9248 47.4366 55.8793 46.7234 56.3273C41.7191 59.4709 35.8984 61.0989 29.9677 60.9954C24.037 60.8918 18.2766 59.0617 13.3851 55.7454C12.688 55.2728 12.5555 54.3131 13.0624 53.6405V53.6405C13.5693 52.9678 14.5233 52.8373 15.223 53.3061C19.5981 56.2369 24.7343 57.8535 30.0209 57.9458C35.3076 58.0381 40.4971 56.6017 44.9718 53.8253C45.6874 53.3813 46.6363 53.545 47.1194 54.2349V54.2349Z" fill="#FAB23D" stroke="#FAB23D" stroke-width="1.4186" mask="url(#path-1-inside-1_7_3)"/>
<mask id="path-2-inside-2_7_3" fill="white">
<path d="M47.1999 54.1784C47.6853 54.8666 47.5227 55.8217 46.811 56.2721C41.8174 59.4326 36.0023 61.0804 30.0712 60.997C24.1402 60.9136 18.3737 59.103 13.4709 55.8034C12.7722 55.3331 12.6365 54.3739 13.1411 53.6995V53.6995C13.6457 53.0252 14.5992 52.8914 15.3005 53.3578C19.6855 56.2737 24.8272 57.873 30.1141 57.9473C35.401 58.0216 40.5856 56.5676 45.0509 53.7761C45.765 53.3296 46.7144 53.4901 47.1999 54.1784V54.1784Z"/>
</mask>
<path d="M47.1999 54.1784C47.6853 54.8666 47.5227 55.8217 46.811 56.2721C41.8174 59.4326 36.0023 61.0804 30.0712 60.997C24.1402 60.9136 18.3737 59.103 13.4709 55.8034C12.7722 55.3331 12.6365 54.3739 13.1411 53.6995V53.6995C13.6457 53.0252 14.5992 52.8914 15.3005 53.3578C19.6855 56.2737 24.8272 57.873 30.1141 57.9473C35.401 58.0216 40.5856 56.5676 45.0509 53.7761C45.765 53.3296 46.7144 53.4901 47.1999 54.1784V54.1784Z" fill="#FAB23D" stroke="#FAB23D" stroke-width="1.4186" mask="url(#path-2-inside-2_7_3)"/>
<path d="M8.11177 57.3423C6.42714 56.3605 6.3496 53.9745 8.08934 53.0941C12.1325 51.0479 16.599 49.9147 21.1632 49.7926C21.9124 49.7726 22.5097 50.3939 22.4965 51.1433V51.1433C22.4833 51.8922 21.8626 52.4816 21.1148 52.5245C16.7697 52.7742 14.5132 54.6526 10.9591 57.2156C10.1206 57.8202 9.00494 57.8628 8.11177 57.3423V57.3423Z" fill="#FAB23D"/>
<path d="M51.2924 57.3423C52.977 56.3605 53.0546 53.9745 51.3148 53.0941C47.2716 51.0479 42.8052 49.9147 38.241 49.7926C37.4917 49.7726 36.8945 50.3939 36.9077 51.1433V51.1433C36.9209 51.8922 37.5416 52.4816 38.2894 52.5245C42.6345 52.7742 44.891 54.6526 48.445 57.2156C49.2835 57.8202 50.3992 57.8628 51.2924 57.3423V57.3423Z" fill="#FAB23D"/>
<path d="M36.3517 49.431C36.3517 50.0656 35.9024 50.8688 34.6817 51.5818C33.4912 52.2772 31.7647 52.7472 29.7907 52.7472C27.8167 52.7472 26.0902 52.2772 24.8997 51.5818C23.679 50.8688 23.2297 50.0656 23.2297 49.431C23.2297 48.7965 23.679 47.9933 24.8997 47.2802C26.0902 46.5848 27.8167 46.1148 29.7907 46.1148C31.7647 46.1148 33.4912 46.5848 34.6817 47.2802C35.9024 47.9933 36.3517 48.7965 36.3517 49.431Z" stroke="#FAB23D" stroke-width="2.48256"/>
<mask id="path-6-inside-3_7_3" fill="white">
<path d="M46.6395 41C47.9432 41 48.4245 40.0787 47.179 39.6936V39.6936C46.0043 39.3305 44.3793 39.092 42.6003 39.0216C40.8213 38.9513 39.0067 39.0537 37.4873 39.3103C35.9678 39.5669 34.8448 39.9606 34.3228 40.4195C33.8009 40.8785 33.9147 41.3722 34.6436 41.8106C35.3726 42.249 36.668 42.603 38.2939 42.808C39.9198 43.0131 41.7678 43.0555 43.501 42.9275C43.5183 42.9262 43.5355 42.9249 43.5527 42.9236C44.7772 42.8307 44.7351 41.5763 43.5261 41.3609V41.3609C43.3019 41.321 43.0718 41.3492 42.8503 41.4021C42.6196 41.4572 42.3428 41.4978 42.04 41.5202C41.5723 41.5547 41.0735 41.5433 40.6348 41.4879C40.196 41.4326 39.8464 41.3371 39.6497 41.2188C39.453 41.1004 39.4222 40.9672 39.5631 40.8434C39.704 40.7195 40.007 40.6133 40.4171 40.544C40.8271 40.4748 41.3168 40.4471 41.7969 40.4661C42.277 40.4851 42.7156 40.5495 43.0326 40.6475V40.6475C43.3687 40.7514 43.8092 41 44.161 41H46.6395Z"/>
</mask>
<path d="M46.6395 41C47.9432 41 48.4245 40.0787 47.179 39.6936V39.6936C46.0043 39.3305 44.3793 39.092 42.6003 39.0216C40.8213 38.9513 39.0067 39.0537 37.4873 39.3103C35.9678 39.5669 34.8448 39.9606 34.3228 40.4195C33.8009 40.8785 33.9147 41.3722 34.6436 41.8106C35.3726 42.249 36.668 42.603 38.2939 42.808C39.9198 43.0131 41.7678 43.0555 43.501 42.9275C43.5183 42.9262 43.5355 42.9249 43.5527 42.9236C44.7772 42.8307 44.7351 41.5763 43.5261 41.3609V41.3609C43.3019 41.321 43.0718 41.3492 42.8503 41.4021C42.6196 41.4572 42.3428 41.4978 42.04 41.5202C41.5723 41.5547 41.0735 41.5433 40.6348 41.4879C40.196 41.4326 39.8464 41.3371 39.6497 41.2188C39.453 41.1004 39.4222 40.9672 39.5631 40.8434C39.704 40.7195 40.007 40.6133 40.4171 40.544C40.8271 40.4748 41.3168 40.4471 41.7969 40.4661C42.277 40.4851 42.7156 40.5495 43.0326 40.6475V40.6475C43.3687 40.7514 43.8092 41 44.161 41H46.6395Z" stroke="#FAB23D" stroke-width="4.25581" mask="url(#path-6-inside-3_7_3)"/>
<mask id="path-7-inside-4_7_3" fill="white">
<path d="M23.6395 41C24.9432 41 25.4245 40.0787 24.179 39.6936V39.6936C23.0043 39.3305 21.3793 39.092 19.6003 39.0216C17.8213 38.9513 16.0067 39.0537 14.4873 39.3103C12.9678 39.5669 11.8448 39.9606 11.3228 40.4195C10.8009 40.8785 10.9147 41.3722 11.6436 41.8106C12.3726 42.249 13.668 42.603 15.2939 42.808C16.9198 43.0131 18.7678 43.0555 20.501 42.9275C20.5183 42.9262 20.5355 42.9249 20.5527 42.9236C21.7772 42.8307 21.7351 41.5763 20.5261 41.3609V41.3609C20.3019 41.321 20.0718 41.3492 19.8503 41.4021C19.6196 41.4572 19.3428 41.4978 19.04 41.5202C18.5723 41.5547 18.0735 41.5433 17.6348 41.4879C17.196 41.4326 16.8464 41.3371 16.6497 41.2188C16.453 41.1004 16.4222 40.9672 16.5631 40.8434C16.704 40.7195 17.007 40.6133 17.4171 40.544C17.8271 40.4748 18.3168 40.4471 18.7969 40.4661C19.277 40.4851 19.7156 40.5495 20.0326 40.6475V40.6475C20.3687 40.7514 20.8092 41 21.161 41H23.6395Z"/>
</mask>
<path d="M23.6395 41C24.9432 41 25.4245 40.0787 24.179 39.6936V39.6936C23.0043 39.3305 21.3793 39.092 19.6003 39.0216C17.8213 38.9513 16.0067 39.0537 14.4873 39.3103C12.9678 39.5669 11.8448 39.9606 11.3228 40.4195C10.8009 40.8785 10.9147 41.3722 11.6436 41.8106C12.3726 42.249 13.668 42.603 15.2939 42.808C16.9198 43.0131 18.7678 43.0555 20.501 42.9275C20.5183 42.9262 20.5355 42.9249 20.5527 42.9236C21.7772 42.8307 21.7351 41.5763 20.5261 41.3609V41.3609C20.3019 41.321 20.0718 41.3492 19.8503 41.4021C19.6196 41.4572 19.3428 41.4978 19.04 41.5202C18.5723 41.5547 18.0735 41.5433 17.6348 41.4879C17.196 41.4326 16.8464 41.3371 16.6497 41.2188C16.453 41.1004 16.4222 40.9672 16.5631 40.8434C16.704 40.7195 17.007 40.6133 17.4171 40.544C17.8271 40.4748 18.3168 40.4471 18.7969 40.4661C19.277 40.4851 19.7156 40.5495 20.0326 40.6475V40.6475C20.3687 40.7514 20.8092 41 21.161 41H23.6395Z" stroke="#FAB23D" stroke-width="4.25581" mask="url(#path-7-inside-4_7_3)"/>
<mask id="path-8-inside-5_7_3" fill="white">
<path d="M24.4322 33.3046C25.0412 33.3046 25.5434 32.8082 25.4515 32.2062C25.3616 31.6173 25.1996 31.04 24.968 30.4873C24.5937 29.594 24.0451 28.7825 23.3535 28.0988C22.6619 27.4152 21.8409 26.8729 20.9373 26.5029C20.0337 26.133 19.0652 25.9425 18.0872 25.9425C17.1092 25.9425 16.1407 26.133 15.2371 26.5029C14.3335 26.8729 13.5125 27.4152 12.8209 28.0988C12.1293 28.7825 11.5807 29.5941 11.2064 30.4873C10.9748 31.04 10.8128 31.6173 10.7229 32.2062C10.631 32.8082 11.1332 33.3046 11.7422 33.3046V33.3046C12.3511 33.3046 12.833 32.8054 12.963 32.2105C13.0292 31.9071 13.1231 31.6096 13.2438 31.3215C13.5073 30.6927 13.8934 30.1215 14.3803 29.6403C14.8671 29.1591 15.445 28.7773 16.081 28.5169C16.7171 28.2565 17.3988 28.1224 18.0872 28.1224C18.7756 28.1224 19.4573 28.2565 20.0934 28.5169C20.7294 28.7773 21.3073 29.159 21.7942 29.6403C22.281 30.1215 22.6671 30.6927 22.9306 31.3215C23.0513 31.6096 23.1452 31.9071 23.2114 32.2105C23.3414 32.8054 23.8233 33.3046 24.4322 33.3046V33.3046Z"/>
</mask>
<path d="M24.4322 33.3046C25.0412 33.3046 25.5434 32.8082 25.4515 32.2062C25.3616 31.6173 25.1996 31.04 24.968 30.4873C24.5937 29.594 24.0451 28.7825 23.3535 28.0988C22.6619 27.4152 21.8409 26.8729 20.9373 26.5029C20.0337 26.133 19.0652 25.9425 18.0872 25.9425C17.1092 25.9425 16.1407 26.133 15.2371 26.5029C14.3335 26.8729 13.5125 27.4152 12.8209 28.0988C12.1293 28.7825 11.5807 29.5941 11.2064 30.4873C10.9748 31.04 10.8128 31.6173 10.7229 32.2062C10.631 32.8082 11.1332 33.3046 11.7422 33.3046V33.3046C12.3511 33.3046 12.833 32.8054 12.963 32.2105C13.0292 31.9071 13.1231 31.6096 13.2438 31.3215C13.5073 30.6927 13.8934 30.1215 14.3803 29.6403C14.8671 29.1591 15.445 28.7773 16.081 28.5169C16.7171 28.2565 17.3988 28.1224 18.0872 28.1224C18.7756 28.1224 19.4573 28.2565 20.0934 28.5169C20.7294 28.7773 21.3073 29.159 21.7942 29.6403C22.281 30.1215 22.6671 30.6927 22.9306 31.3215C23.0513 31.6096 23.1452 31.9071 23.2114 32.2105C23.3414 32.8054 23.8233 33.3046 24.4322 33.3046V33.3046Z" stroke="#FAB23D" stroke-width="4.25581" mask="url(#path-8-inside-5_7_3)"/>
<mask id="path-9-inside-6_7_3" fill="white">
<path d="M47.8392 33.3046C48.4482 33.3046 48.9504 32.8082 48.8585 32.2062C48.7686 31.6173 48.6065 31.04 48.3749 30.4873C48.0007 29.594 47.4521 28.7825 46.7605 28.0988C46.0689 27.4152 45.2479 26.8729 44.3443 26.5029C43.4407 26.133 42.4722 25.9425 41.4942 25.9425C40.5161 25.9425 39.5477 26.133 38.6441 26.5029C37.7405 26.8729 36.9195 27.4152 36.2279 28.0988C35.5363 28.7825 34.9877 29.5941 34.6134 30.4873C34.3818 31.04 34.2198 31.6173 34.1299 32.2062C34.038 32.8082 34.5402 33.3046 35.1491 33.3046V33.3046C35.7581 33.3046 36.2399 32.8054 36.3699 32.2105C36.4362 31.9071 36.5301 31.6096 36.6508 31.3215C36.9143 30.6927 37.3004 30.1215 37.7872 29.6403C38.274 29.1591 38.852 28.7773 39.488 28.5169C40.124 28.2565 40.8057 28.1224 41.4942 28.1224C42.1826 28.1224 42.8643 28.2565 43.5004 28.5169C44.1364 28.7773 44.7143 29.159 45.2011 29.6403C45.6879 30.1215 46.0741 30.6927 46.3375 31.3215C46.4583 31.6096 46.5521 31.9071 46.6184 32.2105C46.7484 32.8054 47.2303 33.3046 47.8392 33.3046V33.3046Z"/>
</mask>
<path d="M47.8392 33.3046C48.4482 33.3046 48.9504 32.8082 48.8585 32.2062C48.7686 31.6173 48.6065 31.04 48.3749 30.4873C48.0007 29.594 47.4521 28.7825 46.7605 28.0988C46.0689 27.4152 45.2479 26.8729 44.3443 26.5029C43.4407 26.133 42.4722 25.9425 41.4942 25.9425C40.5161 25.9425 39.5477 26.133 38.6441 26.5029C37.7405 26.8729 36.9195 27.4152 36.2279 28.0988C35.5363 28.7825 34.9877 29.5941 34.6134 30.4873C34.3818 31.04 34.2198 31.6173 34.1299 32.2062C34.038 32.8082 34.5402 33.3046 35.1491 33.3046V33.3046C35.7581 33.3046 36.2399 32.8054 36.3699 32.2105C36.4362 31.9071 36.5301 31.6096 36.6508 31.3215C36.9143 30.6927 37.3004 30.1215 37.7872 29.6403C38.274 29.1591 38.852 28.7773 39.488 28.5169C40.124 28.2565 40.8057 28.1224 41.4942 28.1224C42.1826 28.1224 42.8643 28.2565 43.5004 28.5169C44.1364 28.7773 44.7143 29.159 45.2011 29.6403C45.6879 30.1215 46.0741 30.6927 46.3375 31.3215C46.4583 31.6096 46.5521 31.9071 46.6184 32.2105C46.7484 32.8054 47.2303 33.3046 47.8392 33.3046V33.3046Z" stroke="#FAB23D" stroke-width="4.25581" mask="url(#path-9-inside-6_7_3)"/>
</svg>
